<svg xmlns="http://www.w3.org/2000/svg" width="49" height="49" viewBox="0 0 49 49" fill="none">
  <circle cx="24.5" cy="24.5" r="24.5" fill="#55BBC6"/>
  <path d="M24.3731 34.9101C24.0763 35.2165 23.674 35.3887 23.2546 35.3887C22.8352 35.3887 22.4329 35.2165 22.1361 34.9101L13.167 25.6365C12.8706 25.3297 12.7041 24.9137 12.7041 24.4801C12.7041 24.0464 12.8706 23.6304 13.167 23.3236L22.1361 14.0501C22.4363 13.7611 22.8332 13.6038 23.2433 13.6111C23.6534 13.6185 24.0447 13.7899 24.3351 14.0893C24.6248 14.3896 24.7905 14.7942 24.7976 15.2182C24.8047 15.6422 24.6525 16.0526 24.3731 16.363L18.1053 22.8436L33.8065 22.8436C34.2263 22.8436 34.6289 23.016 34.9257 23.3229C35.2225 23.6298 35.3893 24.046 35.3893 24.4801C35.3893 24.9141 35.2225 25.3303 34.9257 25.6373C34.6289 25.9442 34.2263 26.1166 33.8065 26.1166L18.1053 26.1166L24.3731 32.5971C24.6695 32.904 24.836 33.3199 24.836 33.7536C24.836 34.1873 24.6695 34.6032 24.3731 34.9101Z" fill="#EFEFEF"/>
</svg>